PathFileType	4	(X/Y/Z)	../Python\walking\Walking05\task.trc
DataRate	CameraRate	NumFrames	NumMarkers	Units	OrigDataRate	OrigDataStartFrame	OrigNumFrames
200.000000	200.000000	6	30	mm	200.000000	75	605
Frame#	Time	C7			RBAK			CLAV			STRN			T10			RASI			RPSI			LPSI			LASI			PE01			PE02			PE03			RTH1			RTH2			RTH3			RTB1			RTB2			RTB3			RHEE			RD5M			RTOE			LTH1			LTH2			LTH3			LTB1			LTB2			LTB3			LHEE			LTOE			LD5M			
		X1	Y1	Z1	X2	Y2	Z2	X3	Y3	Z3	X4	Y4	Z4	X5	Y5	Z5	X6	Y6	Z6	X7	Y7	Z7	X8	Y8	Z8	X9	Y9	Z9	X10	Y10	Z10	X11	Y11	Z11	X12	Y12	Z12	X13	Y13	Z13	X14	Y14	Z14	X15	Y15	Z15	X16	Y16	Z16	X17	Y17	Z17	X18	Y18	Z18	X19	Y19	Z19	X20	Y20	Z20	X21	Y21	Z21	X22	Y22	Z22	X23	Y23	Z23	X24	Y24	Z24	X25	Y25	Z25	X26	Y26	Z26	X27	Y27	Z27	X28	Y28	Z28	X29	Y29	Z29	X30	Y30	Z30	

76	0.375	-667.4617919921877	1523.34033203125	198.4433746337892	-686.0396728515627	1446.474853515625	375.3970336914064	-560.747009277344	1425.42236328125	207.9035034179689	-517.3897094726565	1231.902099609375	219.3306274414064	-738.5878906250002	1271.371337890625	220.3722991943361	-536.7508544921877	1035.286010742188	371.9427490234376	-702.8599853515627	1077.001831054688	282.2037963867189	-707.6641845703127	1070.3671875	182.7358551025391	-539.365905761719	1014.467834472657	96.81539916992193	-697.296325683594	1120.421264648438	229.2249298095704	-709.1367187500002	1062.833862304688	260.1002502441407	-712.9945068359377	1059.181762695313	209.3273773193361	-587.5737304687502	772.5429687500005	400.7590332031252	-646.1042480468752	751.6026611328127	401.8811035156252	-629.4868774414065	707.371032714844	383.5586242675782	-656.993347167969	365.5080871582032	324.4722595214845	-704.4453735351565	326.153045654297	325.8608703613282	-671.9807739257815	289.4804687500001	311.3374633789064	-785.9758300781255	29.89590263366701	218.2695312500001	-632.9573974609377	15.07476139068604	307.9471740722657	-570.2895507812502	29.08423995971681	264.976776123047	-533.801696777344	713.0277099609377	62.7761039733887	-539.9262695312502	667.5675048828127	82.77005004882815	-481.261901855469	654.3635864257815	67.22818756103518	-510.9968566894534	406.6153259277346	81.52224731445315	-554.6536865234377	384.9288330078127	94.62364196777347	-526.400573730469	329.6129760742189	89.09390258789065	-705.1854248046877	132.0093688964844	164.5027618408204	-520.745544433594	51.84650039672854	124.9736328125001	-565.9973144531252	55.64733886718753	89.27519226074222	
77	0.38	-661.245544433594	1522.981079101563	198.5974884033204	-679.8169555664065	1446.219970703125	375.6256408691407	-554.6062011718752	1424.9921875	208.0910797119142	-511.4137268066409	1231.487670898438	219.5895996093751	-732.5677490234377	1271.124877929688	220.5293579101564	-531.1187133789065	1034.623046875	372.0720214843751	-696.942321777344	1076.612548828125	281.9039001464845	-701.4878540039065	1070.109252929688	182.4186706542969	-533.0027465820315	1014.488464355469	96.9309921264649	-691.2446899414065	1120.100463867188	229.0066680908204	-703.1768188476565	1062.46142578125	259.7522583007814	-706.9001464843752	1058.895629882813	208.9654693603517	-583.1587524414065	771.9280395507817	400.6211547851565	-641.8157348632815	751.3579711914065	401.6558837890627	-625.4791259765627	707.0147705078127	383.4050598144532	-654.9739379882815	365.3562316894532	324.1859436035157	-702.6775512695315	326.2961425781251	325.5369873046876	-670.4465332031252	289.427459716797	311.0304565429689	-785.8464965820317	30.25527763366701	218.0629272460939	-632.968444824219	15.0861988067627	307.9370117187501	-570.2308349609377	29.06102180480958	264.9997863769532	-524.9366455078127	713.796569824219	62.08549118041995	-530.9455566406252	668.2061157226565	81.92763519287112	-472.056335449219	655.4768676757815	67.04180908203128	-498.9076232910159	405.1266174316409	81.58554840087893	-541.9168090820315	382.2659912109376	94.627067565918	-512.2520751953127	327.754119873047	89.03549957275393	-685.3382568359377	124.9967651367188	164.3336029052735	-498.6095886230471	50.64437103271487	124.3763122558594	-544.0164184570315	53.07065582275393	88.76287841796878	
78	0.385	-655.0208740234377	1522.581176757813	198.7516021728517	-673.5877075195315	1445.910522460938	375.8479003906251	-548.4558715820315	1424.5224609375	208.2740631103517	-505.426696777344	1231.033203125	219.8234100341798	-726.5379638671877	1270.837158203125	220.6649475097657	-525.4663085937502	1033.9287109375	372.173553466797	-691.0045166015627	1076.19873046875	281.5878295898439	-695.2886352539065	1069.813720703125	182.0867004394532	-526.6231689453127	1014.448852539063	97.01335144042974	-685.1715087890627	1119.74853515625	228.7655181884767	-697.197204589844	1062.063232421875	259.3891906738282	-700.7825317382815	1058.57568359375	208.5896911621095	-578.729675292969	771.2990112304692	400.4703674316409	-637.5142822265627	751.1033325195315	401.4176940917971	-621.4602661132815	706.6483154296877	383.2406005859376	-652.960632324219	365.206024169922	323.8945922851564	-700.9129028320315	326.442840576172	325.2036437988282	-668.9151000976565	289.3787231445314	310.7146911621095	-785.7175292968755	30.63076972961427	217.841278076172	-632.9815063476565	15.10627365112305	307.9140930175782	-570.1708984375002	29.04020500183107	265.0152587890626	-516.168884277344	714.5012817382815	61.41276168823245	-522.0733032226565	668.7901611328127	81.10327911376956	-462.9787902832034	656.5057373046877	66.87919616699222	-487.0051574707034	403.6380310058596	81.73310089111331	-529.286804199219	379.5827941894532	94.76642608642581	-498.2272033691409	325.9360961914064	88.97138977050784	-665.287780761719	118.076026916504	164.1807250976563	-476.4705505371096	49.61857223510745	123.7121810913087	-521.9963378906252	50.67427825927737	88.20339202880862	
79	0.39	-648.7871093750002	1522.14111328125	198.9049072265626	-667.3511962890627	1445.547241210938	376.0634765625001	-542.2954101562502	1424.013549804688	208.4517822265626	-499.4278564453127	1230.538696289063	220.032196044922	-720.4979248046877	1270.508422851563	220.7791748046876	-519.7947998046877	1033.204223632813	372.2501831054689	-685.0474853515627	1075.76025390625	281.2537536621095	-689.0654907226565	1069.480834960938	181.7379302978516	-520.222595214844	1014.348266601563	97.06506347656256	-679.076599121094	1119.365600585938	228.5000610351564	-691.1978759765627	1061.638916015625	259.0092163085939	-694.6409912109377	1058.222045898438	208.1981811523439	-574.2842407226565	770.6571655273442	400.3060302734377	-633.1965332031252	750.838317871094	401.1670532226565	-617.4258422851565	706.2722778320315	383.0647277832032	-650.9490356445315	365.058074951172	323.596893310547	-699.1475219726565	326.594451904297	324.8598632812501	-667.3826904296877	289.3349609375001	310.3894958496095	-785.588256835938	31.02473449707033	217.6021423339845	-632.9970703125002	15.13565921783448	307.8770446777345	-570.1099243164065	29.02134132385255	265.0235595703126	-507.505554199219	715.1350708007815	60.76041412353518	-513.319763183594	669.3128662109377	80.29756164550784	-454.0361938476565	657.4431762695315	66.7409591674805	-475.296325683594	402.1462097167971	81.95972442626956	-516.7711181640627	376.8822021484376	95.03633880615237	-484.3341369628909	324.160125732422	88.900749206543	-645.0476074218752	111.2730865478516	164.042953491211	-454.3437500000002	48.78142929077151	122.9819412231446	-499.9533691406252	48.47415924072268	87.59738922119143	
80	0.395	-642.5435791015627	1521.661743164063	199.0564880371095	-661.1068115234377	1445.130859375	376.2719116210939	-536.1241455078127	1423.466186523438	208.6236724853517	-493.4163513183596	1230.004760742188	220.2163391113282	-714.4470214843752	1270.13916015625	220.8720092773439	-514.1055297851565	1032.451538085938	372.3047485351564	-679.0720825195315	1075.296630859375	280.8998107910157	-682.8174438476565	1069.110473632813	181.3703613281251	-513.7966918945315	1014.186340332032	97.08882141113287	-672.9597167968752	1118.951782226563	228.2088775634767	-685.1787719726565	1061.1884765625	258.610565185547	-688.4749145507815	1057.834594726563	207.789031982422	-569.8206787109377	770.004028320313	400.1280517578127	-628.859802246094	750.5628662109377	400.9048461914065	-613.3721313476565	705.8872680664065	382.877166748047	-648.9348754882815	364.9129943847657	323.2918395996095	-697.377868652344	326.7523193359376	324.5048217773439	-665.845642089844	289.2968139648439	310.0545349121095	-785.4580078125005	31.43963050842287	217.3431854248048	-633.015563964844	15.17498588562012	307.8245849609376	-570.0484008789065	29.00403594970705	265.0251464843751	-498.9544372558596	715.6904296875002	60.13064193725589	-504.6950988769534	669.766784667969	79.51203918457034	-445.235778808594	658.281433105469	66.62640380859378	-463.7843017578127	400.6458129882815	82.25740051269534	-504.3746032714846	374.1657104492189	95.42740631103518	-470.578308105469	322.4256591796876	88.82268524169925	-624.632751464844	104.6140670776368	163.9193115234376	-432.2447204589846	48.14378738403323	122.1899566650391	-477.9040527343752	46.48376464843751	86.94849395751956	
81	0.4	-636.289733886719	1521.143920898438	199.2053985595704	-654.853942871094	1444.662353515625	376.4726562500001	-529.9414062500002	1422.880981445313	208.7891998291017	-487.3913574218752	1229.431640625	220.376434326172	-708.3848266601565	1269.730102539063	220.9433593750001	-508.3999328613284	1031.672485351563	372.3398437500001	-673.0791625976565	1074.807739257813	280.524139404297	-676.5435791015627	1068.703002929688	180.9820251464844	-507.3411560058596	1013.963012695313	97.08738708496099	-666.8211059570315	1118.507202148438	227.8905181884767	-679.1399536132815	1060.711791992188	258.1914062500001	-682.283630371094	1057.41357421875	207.3603515625001	-565.3377075195315	769.3411254882817	399.9367980957034	-624.5017700195315	750.2770996093752	400.6321716308596	-609.2957763671877	705.494323730469	382.6780700683595	-646.9140625000002	364.7713928222657	322.9786987304689	-695.6008300781252	326.9177856445314	324.1380310058595	-664.300720214844	289.2650451660157	309.7098693847657	-785.3256835937505	31.87796783447267	217.0623016357423	-633.0374145507815	15.2248010635376	307.7555541992189	-569.986999511719	28.98793792724611	265.0206604003907	-490.5237426757815	716.1593017578127	59.52548599243167	-496.2087097167971	670.144226074219	78.74945831298831	-436.5849304199221	659.0118408203127	66.5334396362305	-452.4679870605471	399.1299743652346	82.61557769775393	-492.0987854003909	371.4335937500001	95.92639160156253	-456.9622497558596	320.7308349609376	88.73637390136722	-604.0595703125002	98.12516021728521	163.8089599609376	-410.189147949219	47.71495056152345	121.3443603515626	-455.8650512695315	44.71399688720705	86.26333618164065	
